#!OML:ASF F:\VICON\USERDATA\INSTALL\rory3\rory3.ASF
:FULLY-SPECIFIED
:DEGREES
494
root 13.0548 17.5953 13.1959 -3.49797 184.867 1.42204
lowerback 11.7643 0.5604 -1.44532
upperback 0.927744 0.501346 1.06036
thorax -5.65125 0.244504 1.85112
lowerneck -18.0549 -5.24191 -12.0894
upperneck 29.6905 -8.71682 9.5655
head 14.1253 -4.52825 4.23413
rclavicle 5.38349e-015 2.98177e-015
rhumerus -39.7585 -20.6012 -65.3101
rradius 35.965
rwrist 3.57112
rhand -18.8007 6.73313
rfingers 7.12502
rthumb 7.49757 -23.114
lclavicle 5.38349e-015 2.98177e-015
lhumerus -37.9634 4.23501 81.2253
lradius 38.9992
lwrist -3.56734
lhand -17.1368 22.028
lfingers 7.12502
lthumb 9.1033 51.8115
rfemur -6.63471 -3.41142 19.4141
rtibia 34.5818
rfoot -24.4071 7.64589
rtoes -7.45816
lfemur -6.59644 1.35484 -23.0403
ltibia 35.1913
lfoot -18.5403 -10.1226
ltoes 10.9667
495
root 13.1282 17.5827 13.1924 -3.51859 185.322 1.35273
lowerback 11.7667 0.419463 -1.84449
upperback 0.923379 0.265738 1.11647
thorax -5.6495 0.139624 2.17477
lowerneck -18.0789 -5.23544 -12.13
upperneck 29.7229 -8.79349 9.79354
head 14.1712 -4.54384 4.32092
rclavicle -2.19828e-015 -3.72721e-015
rhumerus -39.797 -21.0905 -65.0221
rradius 35.9132
rwrist 4.02328
rhand -18.5592 6.50082
rfingers 7.12502
rthumb 7.7306 -23.3379
lclavicle -2.19828e-015 -3.72721e-015
lhumerus -37.9929 3.89849 81.4923
lradius 39.0596
lwrist -3.36922
lhand -17.4946 21.4013
lfingers 7.12502
lthumb 8.75811 51.1996
rfemur -6.74093 -3.69928 19.5606
rtibia 34.9988
rfoot -24.5925 7.61067
rtoes -9.07024
lfemur -6.22369 1.22286 -23.1616
ltibia 34.5079
lfoot -18.4735 -9.25115
ltoes 10.9366
496
root 13.2 17.5893 13.1841 -3.57094 185.754 1.29326
lowerback 11.801 0.305811 -2.21835
upperback 0.925308 0.0664891 1.13796
thorax -5.65725 0.0514158 2.44201
lowerneck -18.1274 -5.2562 -12.0666
upperneck 29.8013 -8.92391 9.9335
head 14.2402 -4.5829 4.34337
rclavicle -5.5054e-016 -8.80865e-015
rhumerus -39.8723 -21.5618 -64.7947
rradius 35.8084
rwrist 4.19191
rhand -18.4704 6.66208
rfingers 7.12502
rthumb 7.81638 -23.1734
lclavicle -5.5054e-016 -8.80865e-015
lhumerus -38.0057 3.53483 81.6801
lradius 39.1296
lwrist -3.16422
lhand -17.3901 21.5582
lfingers 7.12502
lthumb 8.85895 51.3522
rfemur -6.98526 -4.03438 19.711
rtibia 35.5508
rfoot -24.5617 7.75144
rtoes -7.37896
lfemur -5.8023 1.08619 -23.1941
ltibia 33.7877
lfoot -18.4816 -9.47011
ltoes 12.5603
497
root 13.2674 17.6122 13.1728 -3.61768 186.225 1.21376
lowerback 11.8196 0.149944 -2.5673
upperback 0.925299 -0.185762 1.15008
thorax -5.652 -0.0635911 2.69408
lowerneck -18.037 -5.26649 -12.1013
upperneck 29.7407 -9.0136 10.1257
head 14.2203 -4.60853 4.41115
rclavicle 1.89537e-014 1.09673e-014
rhumerus -39.9305 -21.9344 -64.6668
rradius 35.7839
rwrist 4.19935
rhand -18.4013 6.49566
rfingers 7.12502
rthumb 7.883 -23.3374
lclavicle 1.89537e-014 1.09673e-014
lhumerus -38.0597 3.25916 81.8417
lradius 39.184
lwrist -3.06094
lhand -17.3508 22.1405
lfingers 7.12502
lthumb 8.89689 51.9329
rfemur -7.39358 -4.61768 19.8191
rtibia 36.1886
rfoot -24.4887 7.85554
rtoes -6.24286
lfemur -5.35512 0.5478 -23.1962
ltibia 33.0381
lfoot -18.4591 -9.06261
ltoes 13.064
498
root 13.3413 17.5858 13.1768 -3.58265 186.784 1.07058
lowerback 11.8839 -0.0227433 -3.02161
upperback 0.895005 -0.474694 1.15828
thorax -5.69776 -0.192019 3.00878
lowerneck -17.919 -5.26615 -12.0787
upperneck 29.5606 -9.04942 10.2552
head 14.1274 -4.60456 4.451
rclavicle -1.52435e-014 -8.97016e-015
rhumerus -39.9492 -22.5327 -64.4817
rradius 35.6777
rwrist 4.40835
rhand -18.4825 6.48294
rfingers 7.12502
rthumb 7.80466 -23.353
lclavicle -1.52435e-014 -8.97016e-015
lhumerus -38.0083 2.97631 81.99
lradius 39.1256
lwrist -2.82864
lhand -17.4786 22.2248
lfingers 7.12502
lthumb 8.77354 52.0224
rfemur -7.56954 -4.95861 19.8384
rtibia 36.7913
rfoot -24.6382 7.84365
rtoes -7.67236
lfemur -5.16433 -0.0271417 -23.1898
ltibia 32.4471
lfoot -18.5566 -8.27941
ltoes 11.349
499
root 13.4157 17.5914 13.1779 -3.48702 187.343 0.98655
lowerback 11.901 -0.175192 -3.44204
upperback 0.856483 -0.729748 1.18143
thorax -5.72413 -0.304045 3.31425
lowerneck -17.9388 -5.27083 -12.0036
upperneck 29.4879 -9.08814 10.3271
head 14.1061 -4.60048 4.45817
rclavicle 4.01607e-015 -1.15792e-014
rhumerus -40.0553 -23.0833 -64.3373
rradius 35.7563
rwrist 4.47284
rhand -18.4568 6.38563
rfingers 7.12502
rthumb 7.8295 -23.4494
lclavicle 4.01607e-015 -1.15792e-014
lhumerus -37.9741 2.76551 82.1084
lradius 39.1593
lwrist -2.6924
lhand -17.491 21.785
lfingers 7.12502
lthumb 8.76154 51.5831
rfemur -7.89581 -5.38015 19.9242
rtibia 37.3945
rfoot -24.6804 8.05838
rtoes -8.60693
lfemur -5.08942 -0.25066 -23.0389
ltibia 31.9834
lfoot -18.7835 -8.20646
ltoes 11.1108
500
root 13.4877 17.6018 13.1766 -3.38094 187.77 0.904723
lowerback 11.8857 -0.288273 -3.79455
upperback 0.825087 -0.925463 1.15298
thorax -5.72802 -0.389677 3.51623
lowerneck -17.9795 -5.30796 -11.9613
upperneck 29.4258 -9.21049 10.5104
head 14.1157 -4.62446 4.50102
rclavicle -7.44821e-015 -2.48481e-016
rhumerus -40.2083 -23.5165 -64.3376
rradius 35.9541
rwrist 4.34848
rhand -18.3304 6.39794
rfingers 7.12502
rthumb 7.95144 -23.4325
lclavicle -7.44821e-015 -2.48481e-016
lhumerus -37.9718 2.48895 82.162
lradius 39.2221
lwrist -2.53848
lhand -17.4466 21.6326
lfingers 7.12502
lthumb 8.80438 51.4289
rfemur -8.30761 -5.88074 19.981
rtibia 37.9624
rfoot -24.6009 8.5428
rtoes -8.75759
lfemur -5.11637 -0.447057 -22.8601
ltibia 31.78
lfoot -19.0227 -8.87186
ltoes 12.7409
501
root 13.5598 17.6054 13.1798 -3.20978 188.188 0.801755
lowerback 11.8709 -0.414704 -4.19167
upperback 0.749286 -1.14202 1.1444
thorax -5.77384 -0.481114 3.76846
lowerneck -17.9707 -5.34837 -12.0368
upperneck 29.4001 -9.34568 10.7565
head 14.1432 -4.6663 4.58935
rclavicle 1.84093e-014 -3.926e-015
rhumerus -40.3408 -23.8797 -64.3214
rradius 35.9985
rwrist 4.26502
rhand -18.2882 6.45386
rfingers 7.12502
rthumb 7.99214 -23.375
lclavicle 1.84093e-014 -3.926e-015
lhumerus -37.902 2.29497 82.2137
lradius 39.046
lwrist -2.46487
lhand -17.4952 21.8844
lfingers 7.12502
lthumb 8.75745 51.6827
rfemur -8.87225 -6.6153 19.9814
rtibia 38.6178
rfoot -24.6341 9.1628
rtoes -10.2169
lfemur -5.2448 -0.635844 -22.6614
ltibia 31.5534
lfoot -18.994 -9.49208
ltoes 12.7232
502
root 13.6318 17.6104 13.1866 -3.02169 188.631 0.6308
lowerback 11.8849 -0.556738 -4.64959
upperback 0.670291 -1.39033 1.12301
thorax -5.83213 -0.585987 4.04765
lowerneck -18.0432 -5.3566 -12.0151
upperneck 29.4566 -9.40684 10.8395
head 14.1975 -4.68266 4.60849
rclavicle -2.87461e-014 -5.81445e-015
rhumerus -40.4447 -24.0897 -64.3952
rradius 36.0505
rwrist 4.11543
rhand -18.2227 6.55589
rfingers 7.12502
rthumb 8.05542 -23.2706
lclavicle -2.87461e-014 -5.81445e-015
lhumerus -37.7695 2.17817 82.2359
lradius 38.8306
lwrist -2.41128
lhand -17.5307 21.9562
lfingers 7.12502
lthumb 8.72323 51.756
rfemur -9.48766 -7.43743 19.8843
rtibia 39.3474
rfoot -24.7653 9.82433
rtoes -11.5446
lfemur -5.43544 -0.543284 -22.4879
ltibia 31.3117
lfoot -18.9012 -9.93655
ltoes 11.4929
503
root 13.7023 17.6203 13.1952 -2.86875 189.045 0.456878
lowerback 11.9587 -0.674182 -5.04447
upperback 0.619433 -1.60496 1.07387
thorax -5.89657 -0.677302 4.25764
lowerneck -18.1434 -5.40218 -11.882
upperneck 29.4384 -9.4801 10.7912
head 14.2124 -4.69841 4.54894
rclavicle 9.62242e-015 -2.05742e-014
rhumerus -40.6214 -24.2767 -64.58
rradius 36.3131
rwrist 3.76012
rhand -18.3057 6.6154
rfingers 7.12502
rthumb 7.97529 -23.2141
lclavicle 9.62242e-015 -2.05742e-014
lhumerus -37.6197 2.05444 82.2311
lradius 38.6447
lwrist -2.48216
lhand -17.573 21.9962
lfingers 7.12502
lthumb 8.68241 51.7977
rfemur -10.0949 -8.18489 19.7432
rtibia 40.1153
rfoot -24.7772 10.5971
rtoes -12.688
lfemur -5.60533 -0.356842 -22.3141
ltibia 31.0806
lfoot -18.8771 -10.5989
ltoes 11.1
504
root 13.7718 17.6327 13.2066 -2.77169 189.372 0.35811
lowerback 12.1228 -0.75166 -5.33423
upperback 0.582536 -1.75943 1.03367
thorax -6.00404 -0.741114 4.41085
lowerneck -18.1535 -5.46689 -11.9831
upperneck 29.3349 -9.61088 11.0347
head 14.2121 -4.73398 4.63977
rclavicle -1.34614e-014 5.96354e-015
rhumerus -40.7967 -24.6459 -64.7047
rradius 36.5384
rwrist 3.67997
rhand -18.3929 6.59125
rfingers 7.12502
rthumb 7.89115 -23.2415
lclavicle -1.34614e-014 5.96354e-015
lhumerus -37.4222 2.07118 82.1599
lradius 38.3764
lwrist -2.66267
lhand -17.7411 21.9674
lfingers 7.12502
lthumb 8.52015 51.7755
rfemur -10.6814 -8.94282 19.6525
rtibia 40.8838
rfoot -24.4866 11.4888
rtoes -13.8459
lfemur -5.73358 -0.384623 -22.1103
ltibia 30.8794
lfoot -18.8427 -11.2331
ltoes 11.2986
505
root 13.8377 17.6404 13.2124 -2.70464 189.57 0.256943
lowerback 12.2245 -0.76854 -5.58379
upperback 0.566062 -1.82668 0.97535
thorax -6.06567 -0.765492 4.50547
lowerneck -18.034 -5.53816 -12.1732
upperneck 29.1433 -9.78736 11.4378
head 14.169 -4.78608 4.80284
rclavicle 5.47403e-014 -3.18055e-015
rhumerus -40.897 -25.2541 -64.6964
rradius 36.4324
rwrist 4.00524
rhand -18.3754 6.6857
rfingers 7.12502
rthumb 7.90806 -23.1464
lclavicle 5.47403e-014 -3.18055e-015
lhumerus -37.2257 1.92448 82.1276
lradius 38.119
lwrist -2.66103
lhand -17.8793 21.9184
lfingers 7.12502
lthumb 8.38682 51.7319
rfemur -11.1961 -9.7353 19.4972
rtibia 41.639
rfoot -24.1225 12.6448
rtoes -14.4655
lfemur -5.77664 -0.513413 -21.9661
ltibia 30.6903
lfoot -18.748 -11.4858
ltoes 10.473
506
root 13.9006 17.6474 13.2206 -2.6693 189.693 0.164286
lowerback 12.3695 -0.765015 -5.76513
upperback 0.545805 -1.86228 0.901755
thorax -6.16161 -0.775189 4.54161
lowerneck -17.9842 -5.6065 -12.1856
upperneck 29.0409 -9.93998 11.6069
head 14.1507 -4.83449 4.8431
rclavicle -4.08751e-015 1.59028e-015
rhumerus -41.0449 -25.7058 -64.7762
rradius 36.3046
rwrist 4.29737
rhand -18.4737 6.76766
rfingers 7.12502
rthumb 7.81311 -23.068
lclavicle -4.08751e-015 1.59028e-015
lhumerus -37.0679 1.76326 82.0604
lradius 37.8274
lwrist -2.68352
lhand -17.8411 21.8938
lfingers 7.12502
lthumb 8.42373 51.7058
rfemur -11.6733 -10.3904 19.2927
rtibia 42.3754
rfoot -23.741 14.0525
rtoes -14.3362
lfemur -5.79849 -0.69562 -21.8591
ltibia 30.4987
lfoot -18.5434 -11.367
ltoes 9.80725
